<svg aria-hidden="true" style="position: absolute; width: 0; height: 0; overflow: hidden;" version="1.1" xmlns="http://www.w3.org/2000/svg" xmlns:xlink="http://www.w3.org/1999/xlink">
<defs>
<symbol id="logo" viewBox="0 0 107 32">
<path fill="#181c27" d="M36.213 12.011c-2.172 0-3.811 1.712-3.811 3.985s1.656 3.985 3.85 3.985c2.172 0 3.81-1.712 3.81-3.985s-1.655-3.985-3.849-3.985zM47.223 0.162h-47.223v31.838h47.223l11.152-15.885-11.152-15.953zM24.692 21.036l-0.109 0.092c-1.763 1.486-3.804 2.239-6.066 2.239-2.139 0-4.068-0.743-5.433-2.092-1.352-1.338-2.097-3.213-2.097-5.28 0-1.986 0.757-3.834 2.134-5.204 1.397-1.398 3.304-2.167 5.38-2.167 2.34 0 3.959 0.564 5.596 1.947l0.233 0.197-2.301 2.754-0.239-0.198c-1.004-0.832-1.881-1.314-3.392-1.314-2.004 0-3.634 1.788-3.634 3.985 0 2.332 1.619 4.024 3.849 4.024 0.982 0 1.854-0.232 2.535-0.674v-1.481h-3.040v-3.213h6.584v6.384zM41.678 21.203c-1.417 1.396-3.358 2.165-5.466 2.165s-4.045-0.763-5.447-2.151c-1.381-1.366-2.142-3.218-2.142-5.221-0.006-0.967 0.182-1.926 0.553-2.82s0.918-1.706 1.609-2.387c1.417-1.396 3.358-2.162 5.466-2.162s4.044 0.764 5.446 2.151c1.381 1.366 2.142 3.218 2.142 5.221 0.006 0.967-0.182 1.925-0.553 2.818s-0.918 1.704-1.608 2.385z"></path>
<path fill="#fff" stroke="#fff" stroke-linejoin="miter" stroke-linecap="butt" stroke-miterlimit="10" stroke-width="0.7619" d="M11.278 16.022c0-3.815 2.988-6.94 7.074-6.94 2.429 0 3.893 0.652 5.3 1.84l-1.87 2.243c-1.041-0.863-1.966-1.361-3.527-1.361-2.159 0-3.874 1.898-3.874 4.218 0 2.454 1.696 4.256 4.086 4.256 1.079 0 2.043-0.268 2.795-0.805v-1.917h-2.988v-2.552h5.859v5.828c-1.388 1.169-3.296 2.128-5.763 2.128-4.202 0-7.093-2.933-7.093-6.937z"></path>
<path fill="#fff" stroke="#fff" stroke-linejoin="miter" stroke-linecap="butt" stroke-miterlimit="10" stroke-width="0.7619" d="M29.176 16.115c0-3.815 3.029-6.94 7.189-6.94s7.151 3.087 7.151 6.94c0 3.815-3.029 6.94-7.189 6.94s-7.151-3.087-7.151-6.94zM40.413 16.115c0-2.301-1.696-4.218-4.086-4.218s-4.048 1.879-4.048 4.218c0 2.3 1.696 4.218 4.086 4.218s4.048-1.879 4.048-4.218z"></path>
<path fill="#ff6c00" d="M106.667 0h-47.164v31.838h47.164v-31.838z"></path>
<path fill="#fff" stroke="#fff" stroke-linejoin="miter" stroke-linecap="butt" stroke-miterlimit="10" stroke-width="0.7619" d="M74.033 9.542h2.968v13.42h-2.968v-13.42z"></path>
<path fill="#fff" stroke="#fff" stroke-linejoin="miter" stroke-linecap="butt" stroke-miterlimit="10" stroke-width="0.7619" d="M85.783 12.265h-4.106v-2.722h11.179v2.722h-4.105v10.697h-2.968v-10.697z"></path>
</symbol>
<symbol id="add-people" viewBox="0 0 32 32">
<path d="M18.529 21.037c-0.782-0.546-1.619-0.991-2.493-1.331 1.163-1.057 1.935-2.539 2.069-4.197 1.764-1.719 4.077-2.661 6.556-2.661 1.935 0 3.794 0.583 5.374 1.685 0.566 0.395 1.345 0.256 1.74-0.31s0.256-1.345-0.31-1.74c-0.783-0.546-1.619-0.99-2.493-1.331 1.284-1.167 2.091-2.849 2.091-4.716 0-3.515-2.86-6.374-6.374-6.374s-6.374 2.859-6.374 6.374c0 1.86 0.8 3.536 2.075 4.702-0.175 0.067-0.348 0.138-0.52 0.214-0.782 0.344-1.518 0.768-2.201 1.265-0.943-2.343-3.239-4.001-5.916-4.001-3.515 0-6.374 2.859-6.374 6.374 0 1.855 0.796 3.526 2.064 4.692-3.39 1.27-6.139 3.999-7.259 7.478-0.371 1.154-0.175 2.377 0.539 3.357s1.818 1.541 3.030 1.541h10.874c0.69 0 1.25-0.56 1.25-1.25s-0.56-1.25-1.25-1.25h-10.874c-0.404 0-0.772-0.187-1.010-0.514s-0.303-0.735-0.18-1.119c1.235-3.841 5.003-6.523 9.162-6.523 1.935 0 3.793 0.583 5.374 1.685 0.566 0.395 1.345 0.256 1.74-0.31s0.256-1.345-0.31-1.74zM24.688 2.562c2.136 0 3.875 1.738 3.875 3.874s-1.738 3.874-3.875 3.874c-2.136 0-3.874-1.738-3.874-3.874s1.738-3.874 3.874-3.874zM11.752 11.116c2.136 0 3.874 1.738 3.874 3.874s-1.738 3.875-3.874 3.875-3.874-1.738-3.874-3.875c0-2.136 1.738-3.874 3.874-3.874zM32 26.122c0 0.69-0.56 1.25-1.25 1.25h-3.437v3.437c0 0.69-0.56 1.25-1.25 1.25s-1.25-0.56-1.25-1.25v-3.437h-3.437c-0.69 0-1.25-0.56-1.25-1.25s0.56-1.25 1.25-1.25h3.437v-3.437c0-0.69 0.56-1.25 1.25-1.25s1.25 0.56 1.25 1.25v3.437h3.437c0.691 0 1.25 0.56 1.25 1.25z"></path>
</symbol>
<symbol id="analytics" viewBox="0 0 22 22">
<path d="M21.5417 21.0834H0.458348C0.205348 21.0834 0 21.2887 0 21.5417C0 21.7947 0.205348 22 0.458348 22H21.5417C21.7947 22 22 21.7947 22 21.5417C22 21.2887 21.7947 21.0834 21.5417 21.0834Z"></path>
<path d="M4.1251 15.5834H1.3751C1.1221 15.5834 0.916748 15.7887 0.916748 16.0417V21.5417C0.916748 21.7947 1.1221 22 1.3751 22H4.1251C4.3781 22 4.58344 21.7947 4.58344 21.5417V16.0417C4.58344 15.7887 4.3781 15.5834 4.1251 15.5834ZM3.66675 21.0834H1.83344V16.5H3.66679V21.0834H3.66675Z"></path>
<path d="M9.6251 11H6.8751C6.6221 11 6.41675 11.2053 6.41675 11.4583V21.5417C6.41675 21.7947 6.6221 22 6.8751 22H9.6251C9.8781 22 10.0834 21.7947 10.0834 21.5417V11.4583C10.0834 11.2053 9.8781 11 9.6251 11ZM9.16675 21.0833H7.3334V11.9167H9.16675V21.0833Z"></path>
<path d="M15.1251 12.8334H12.3751C12.1221 12.8334 11.9167 13.0387 11.9167 13.2917V21.5417C11.9167 21.7947 12.1221 22.0001 12.3751 22.0001H15.1251C15.3781 22.0001 15.5834 21.7947 15.5834 21.5417V13.2917C15.5834 13.0387 15.3781 12.8334 15.1251 12.8334ZM14.6667 21.0834H12.8334V13.75H14.6667V21.0834Z"></path>
<path d="M20.6251 7.33337H17.8751C17.6221 7.33337 17.4167 7.53872 17.4167 7.79172V21.5417C17.4167 21.7947 17.6221 22.0001 17.8751 22.0001H20.6251C20.8781 22.0001 21.0834 21.7947 21.0834 21.5417V7.79172C21.0834 7.53868 20.8781 7.33337 20.6251 7.33337ZM20.1667 21.0834H18.3334V8.25003H20.1667V21.0834Z"></path>
<path d="M2.7501 8.25C1.739 8.25 0.916748 9.07225 0.916748 10.0833C0.916748 11.0944 1.739 11.9167 2.7501 11.9167C3.76119 11.9167 4.58344 11.0944 4.58344 10.0833C4.58344 9.07225 3.76119 8.25 2.7501 8.25ZM2.7501 11C2.2441 11 1.83344 10.5884 1.83344 10.0833C1.83344 9.57825 2.2441 9.1667 2.7501 9.1667C3.2561 9.1667 3.66675 9.57829 3.66675 10.0833C3.66675 10.5884 3.2561 11 2.7501 11Z"></path>
<path d="M8.2501 3.66663C7.239 3.66663 6.41675 4.48888 6.41675 5.49997C6.41675 6.51107 7.239 7.33332 8.2501 7.33332C9.26119 7.33332 10.0834 6.51107 10.0834 5.49997C10.0834 4.48888 9.26119 3.66663 8.2501 3.66663ZM8.2501 6.41662C7.7441 6.41662 7.33344 6.00503 7.33344 5.49997C7.33344 4.99487 7.7441 4.58332 8.2501 4.58332C8.7561 4.58332 9.16675 4.99492 9.16675 5.49997C9.16675 6.00507 8.7561 6.41662 8.2501 6.41662Z"></path>
<path d="M13.7501 5.5C12.739 5.5 11.9167 6.32225 11.9167 7.33335C11.9167 8.34445 12.739 9.1667 13.7501 9.1667C14.7612 9.1667 15.5834 8.34445 15.5834 7.33335C15.5834 6.32225 14.7612 5.5 13.7501 5.5ZM13.7501 8.25C13.2441 8.25 12.8334 7.8384 12.8334 7.33335C12.8334 6.82825 13.2441 6.4167 13.7501 6.4167C14.2561 6.4167 14.6667 6.82829 14.6667 7.33335C14.6667 7.8384 14.2561 8.25 13.7501 8.25Z"></path>
<path d="M19.2501 0C18.239 0 17.4167 0.82225 17.4167 1.83335C17.4167 2.84445 18.239 3.6667 19.2501 3.6667C20.2612 3.6667 21.0834 2.84445 21.0834 1.83335C21.0834 0.82225 20.2612 0 19.2501 0ZM19.2501 2.75C18.7441 2.75 18.3334 2.3384 18.3334 1.83335C18.3334 1.32825 18.7441 0.916695 19.2501 0.916695C19.7561 0.916695 20.1667 1.32829 20.1667 1.83335C20.1667 2.3384 19.7561 2.75 19.2501 2.75Z"></path>
<path d="M18.603 2.4805C18.4242 2.30175 18.1336 2.30175 17.9549 2.4805L14.3982 6.03715C14.2195 6.2159 14.2195 6.5065 14.3982 6.68525C14.4881 6.77415 14.6054 6.8191 14.7227 6.8191C14.8391 6.8191 14.9565 6.7751 15.0463 6.68525L18.603 3.1286C18.7817 2.94985 18.7817 2.65925 18.603 2.4805Z"></path>
<path d="M12.6417 6.27545L9.6974 5.4358C9.4508 5.3643 9.20055 5.5073 9.1318 5.75115C9.06215 5.99499 9.2033 6.24799 9.4462 6.31765L12.3905 7.1573C12.4327 7.1692 12.4749 7.1747 12.5161 7.1747C12.716 7.1747 12.8993 7.0436 12.957 6.84195C13.0267 6.59905 12.8856 6.3451 12.6417 6.27545Z"></path>
<path d="M7.53488 6.07107C7.37723 5.87307 7.08938 5.84097 6.89138 5.99772L3.43553 8.75322C3.23753 8.91182 3.20453 9.19963 3.36313 9.39763C3.45388 9.51128 3.58773 9.56997 3.72153 9.56997C3.82143 9.56997 3.92228 9.53697 4.00663 9.47097L7.46248 6.71547C7.66048 6.55688 7.69348 6.26907 7.53488 6.07107Z"></path>
</symbol>
<symbol id="arrow" viewBox="0 0 124 32">
<path d="M2.586 14.586c-0.781 0.781-0.781 2.047 0 2.828l12.728 12.728c0.781 0.781 2.047 0.781 2.828 0s0.781-2.047 0-2.828l-11.314-11.314 11.314-11.314c0.781-0.781 0.781-2.047 0-2.828s-2.047-0.781-2.828 0l-12.728 12.728zM124 14h-120v4h120v-4z"></path>
</symbol>
<symbol id="circle" viewBox="0 0 16 16">
<circle cx="8" cy="8" r="8"/>
</symbol>
<symbol id="close" viewBox="0 0 25 25">
<path d="M18.365 19.2771L12.4968 13.4089L6.7805 19.1251L5.83793 18.1825L11.5542 12.4663L5.71631 6.62842L6.59807 5.74666L12.4359 11.5845L18.1826 5.83787L19.1252 6.78045L13.3785 12.5271L19.2468 18.3954L18.365 19.2771Z"></path>
</symbol>
<symbol id="create-btn" viewBox="0 0 18 18">
<path d="M17.9343 9.595H9.63526V17.679H8.30226V9.595H0.0462579V8.348H8.30226V0.220999H9.63526V8.348H17.9343V9.595Z"></path>
</symbol>
<symbol id="delete" viewBox="0 0 32 32">
<path d="M16 0c-8.837 0-16 7.163-16 16s7.163 16 16 16c8.836 0 16-7.164 16-16s-7.164-16-16-16zM17.61 7.559h-3.209v0.54h-1.159v-0.616c0-0.597 0.486-1.083 1.083-1.083h3.361c0.597 0 1.083 0.486 1.083 1.083v0.616h-1.159v-0.54zM21.445 12.691c0.298 0 0.533 0.254 0.508 0.552l-0.909 11.246c-0.051 0.628-0.574 1.112-1.204 1.112h-7.67c-0.629 0-1.153-0.484-1.204-1.111l-0.91-11.246c-0.024-0.297 0.211-0.552 0.509-0.552h10.879zM13.2 24.4c0.319-0.020 0.562-0.295 0.543-0.614l-0.57-9.233c-0.020-0.32-0.296-0.562-0.614-0.543-0.319 0.020-0.562 0.295-0.543 0.614l0.57 9.233c0.019 0.307 0.274 0.544 0.578 0.544 0.012 0 0.024-0 0.036-0.001zM16.592 23.822v-9.233c0-0.32-0.26-0.579-0.58-0.579s-0.58 0.259-0.58 0.579v9.233c0 0.32 0.259 0.579 0.58 0.579s0.58-0.259 0.58-0.579zM19.995 14.623c0.019-0.319-0.225-0.594-0.544-0.613s-0.594 0.225-0.612 0.544l-0.544 9.233c-0.019 0.32 0.225 0.594 0.544 0.613l0.011 0 0.024 0c0.304 0 0.56-0.237 0.578-0.545l0.544-9.233zM23.069 9.762l0.381 1.141c0.073 0.22-0.022 0.444-0.2 0.556-0.072 0.046-0.159 0.073-0.253 0.073h-13.98c-0.094 0-0.18-0.027-0.253-0.073-0.178-0.112-0.274-0.336-0.2-0.556l0.381-1.141c0.1-0.301 0.382-0.504 0.699-0.504h12.728c0.317 0 0.599 0.203 0.699 0.504z"></path>
</symbol>
<symbol id="logout" viewBox="0 0 18 18">
<path d="M15.0575 6.3238L15.0575 6.32375C15.2734 6.10772 15.6237 6.10768 15.8398 6.32378L17.4142 7.89826C18.0411 8.52509 18.0411 9.54523 17.4142 10.1721L15.8398 11.7465C15.7317 11.8546 15.5904 11.9086 15.4486 11.9086C15.3068 11.9086 15.1656 11.8546 15.0575 11.7465L15.0575 11.7465C14.8414 11.5306 14.8414 11.1804 15.0575 10.9644L15.0575 10.9644L16.1774 9.84434L16.4335 9.58828H16.0714H7.62891C7.32338 9.58828 7.07578 9.34068 7.07578 9.03516C7.07578 8.72963 7.32338 8.48203 7.62891 8.48203H16.0714H16.4335L16.1774 8.22597L15.0575 7.10592L15.0575 7.10588C14.8414 6.88995 14.8414 6.53974 15.0575 6.3238ZM12.5766 13.7812V15.1875C12.5766 16.6555 11.3821 17.85 9.91406 17.85H2.84766C1.37964 17.85 0.185156 16.6555 0.185156 15.1875V2.8125C0.185156 1.34449 1.37964 0.15 2.84766 0.15H9.91406C11.3821 0.15 12.5766 1.34449 12.5766 2.8125V4.21875C12.5766 4.52427 12.329 4.77187 12.0234 4.77187C11.7179 4.77187 11.4703 4.52427 11.4703 4.21875V2.8125C11.4703 1.9543 10.7723 1.25625 9.91406 1.25625H2.84766C1.98945 1.25625 1.29141 1.9543 1.29141 2.8125V15.1875C1.29141 16.0457 1.98945 16.7437 2.84766 16.7437H9.91406C10.7723 16.7437 11.4703 16.0457 11.4703 15.1875V13.7812C11.4703 13.4757 11.7179 13.2281 12.0234 13.2281C12.329 13.2281 12.5766 13.4757 12.5766 13.7812Z" stroke-width="0.3"></path>
</symbol>
<symbol id="project" viewBox="0 0 32 32">
<path d="M15.999 0c-8.836 0-15.999 7.164-15.999 16s7.163 16 15.999 16c8.836 0 16-7.164 16-16s-7.164-16-16-16zM23.605 11.514l-1.52 1.52-3.093-3.093-1.174 1.174 3.093 3.093-7.587 7.587-3.093-3.093-1.174 1.174 3.093 3.093-0.756 0.756-0.014-0.014c-0.084 0.138-0.22 0.239-0.382 0.275l-2.885 0.643c-0.043 0.010-0.087 0.014-0.131 0.014-0.157 0-0.31-0.062-0.424-0.176-0.146-0.145-0.206-0.354-0.161-0.555l0.643-2.884c0.036-0.162 0.137-0.298 0.275-0.382l-0.015-0.015 12.21-12.211c0.179-0.179 0.47-0.179 0.649 0.001l2.445 2.444c0.179 0.179 0.179 0.47-0 0.649z"></path>
</symbol>
<symbol id="search" viewBox="0 0 32 32">
<path d="M31.609 29.724l-9.1-9.1c1.763-2.177 2.824-4.944 2.824-7.957 0-6.984-5.683-12.667-12.667-12.667s-12.666 5.683-12.666 12.666c0 6.984 5.683 12.667 12.667 12.667 3.013 0 5.78-1.061 7.957-2.824l9.1 9.1c0.26 0.26 0.601 0.391 0.943 0.391s0.683-0.131 0.943-0.391c0.521-0.521 0.521-1.364-0-1.885zM12.667 22.667c-5.515 0-10-4.485-10-10s4.485-10 10-10c5.515 0 10 4.485 10 10s-4.485 10-10 10z"></path>
</symbol>
<symbol id="arrow-left" viewBox="0 0 24 24">
<path d="M17.51 3.87L15.73 2.1 5.84 12l9.9 9.9 1.77-1.77L9.38 12l8.13-8.13z"></path>
</symbol>
<symbol id="arrow-right" viewBox="0 0 24 24">
<path d="M6.49 20.13l1.77 1.77 9.9-9.9-9.9-9.9-1.77 1.77L14.62 12l-8.13 8.13z"></path>
</symbol>
<symbol id="done" viewBox="0 0 24 24">
<path d="M9 16.17L4.83 12l-1.42 1.41L9 19 21 7l-1.41-1.41L9 16.17z"></path>
</symbol>
<symbol id="show-password" viewBox="0 0 24 24">
<path d="M12 4.5C7 4.5 2.73 7.61 1 12c1.73 4.39 6 7.5 11 7.5s9.27-3.11 11-7.5c-1.73-4.39-6-7.5-11-7.5zM12 17c-2.76 0-5-2.24-5-5s2.24-5 5-5 5 2.24 5 5-2.24 5-5 5zm0-8c-1.66 0-3 1.34-3 3s1.34 3 3 3 3-1.34 3-3-1.34-3-3-3z"></path>
</symbol>
<symbol id="hide-password" viewBox="0 0 24 24">
<path d="M12 7c2.76 0 5 2.24 5 5 0 .65-.13 1.26-.36 1.83l2.92 2.92c1.51-1.26 2.7-2.89 3.43-4.75-1.73-4.39-6-7.5-11-7.5-1.4 0-2.74.25-3.98.7l2.16 2.16C10.74 7.13 11.35 7 12 7zM2 4.27l2.28 2.28.46.46C3.08 8.3 1.78 10.02 1 12c1.73 4.39 6 7.5 11 7.5 1.55 0 3.03-.3 4.38-.84l.42.42L19.73 22 21 20.73 3.27 3 2 4.27zM7.53 9.8l1.55 1.55c-.05.21-.08.43-.08.65 0 1.66 1.34 3 3 3 .22 0 .44-.03.65-.08l1.55 1.55c-.67.33-1.41.53-2.2.53-2.76 0-5-2.24-5-5 0-.79.2-1.53.53-2.2zm4.31-.78l3.15 3.15.02-.16c0-1.66-1.34-3-3-3l-.17.01z"></path>
</symbol>
</defs>
</svg>
