<svg aria-hidden="true" style="position: absolute; width: 0; height: 0; overflow: hidden;" version="1.1" xmlns="http://www.w3.org/2000/svg" xmlns:xlink="http://www.w3.org/1999/xlink">
<defs>
<symbol id="icon-delete-white" viewBox="0 0 32 32">
<title>delete-white</title>
<path fill="#fff" style="fill: var(--color1, #fff)" d="M16 0c-8.837 0-16 7.163-16 16s7.163 16 16 16c8.836 0 16-7.164 16-16s-7.164-16-16-16zM17.61 7.559h-3.209v0.54h-1.159v-0.616c0-0.597 0.486-1.083 1.083-1.083h3.361c0.597 0 1.083 0.486 1.083 1.083v0.616h-1.159v-0.54zM21.445 12.691c0.298 0 0.533 0.254 0.508 0.552l-0.909 11.246c-0.051 0.628-0.574 1.112-1.204 1.112h-7.67c-0.629 0-1.153-0.484-1.204-1.111l-0.91-11.246c-0.024-0.297 0.211-0.552 0.509-0.552h10.879zM13.2 24.4c0.319-0.020 0.562-0.295 0.543-0.614l-0.57-9.233c-0.020-0.32-0.296-0.562-0.614-0.543-0.319 0.020-0.562 0.295-0.543 0.614l0.57 9.233c0.019 0.307 0.274 0.544 0.578 0.544 0.012 0 0.024-0 0.036-0.001zM16.592 23.822v-9.233c0-0.32-0.26-0.579-0.58-0.579s-0.58 0.259-0.58 0.579v9.233c0 0.32 0.259 0.579 0.58 0.579s0.58-0.259 0.58-0.579zM19.995 14.623c0.019-0.319-0.225-0.594-0.544-0.613s-0.594 0.225-0.612 0.544l-0.544 9.233c-0.019 0.32 0.225 0.594 0.544 0.613l0.011 0 0.024 0c0.304 0 0.56-0.237 0.578-0.545l0.544-9.233zM23.069 9.762l0.381 1.141c0.073 0.22-0.022 0.444-0.2 0.556-0.072 0.046-0.159 0.073-0.253 0.073h-13.98c-0.094 0-0.18-0.027-0.253-0.073-0.178-0.112-0.274-0.336-0.2-0.556l0.381-1.141c0.1-0.301 0.382-0.504 0.699-0.504h12.728c0.317 0 0.599 0.203 0.699 0.504z"></path>
</symbol>
<symbol id="icon-add-group" viewBox="0 0 32 32">
<title>add-group</title>
<path d="M18.529 21.037c-0.782-0.546-1.619-0.991-2.493-1.331 1.163-1.057 1.935-2.539 2.069-4.197 1.764-1.719 4.077-2.661 6.556-2.661 1.935 0 3.794 0.583 5.374 1.685 0.566 0.395 1.345 0.256 1.74-0.31s0.256-1.345-0.31-1.74c-0.783-0.546-1.619-0.99-2.493-1.331 1.284-1.167 2.091-2.849 2.091-4.716 0-3.515-2.86-6.374-6.374-6.374s-6.374 2.859-6.374 6.374c0 1.86 0.8 3.536 2.075 4.702-0.175 0.067-0.348 0.138-0.52 0.214-0.782 0.344-1.518 0.768-2.201 1.265-0.943-2.343-3.239-4.001-5.916-4.001-3.515 0-6.374 2.859-6.374 6.374 0 1.855 0.796 3.526 2.064 4.692-3.39 1.27-6.139 3.999-7.259 7.478-0.371 1.154-0.175 2.377 0.539 3.357s1.818 1.541 3.030 1.541h10.874c0.69 0 1.25-0.56 1.25-1.25s-0.56-1.25-1.25-1.25h-10.874c-0.404 0-0.772-0.187-1.010-0.514s-0.303-0.735-0.18-1.119c1.235-3.841 5.003-6.523 9.162-6.523 1.935 0 3.793 0.583 5.374 1.685 0.566 0.395 1.345 0.256 1.74-0.31s0.256-1.345-0.31-1.74zM24.688 2.562c2.136 0 3.875 1.738 3.875 3.874s-1.738 3.874-3.875 3.874c-2.136 0-3.874-1.738-3.874-3.874s1.738-3.874 3.874-3.874zM11.752 11.116c2.136 0 3.874 1.738 3.874 3.874s-1.738 3.875-3.874 3.875-3.874-1.738-3.874-3.875c0-2.136 1.738-3.874 3.874-3.874zM32 26.122c0 0.69-0.56 1.25-1.25 1.25h-3.437v3.437c0 0.69-0.56 1.25-1.25 1.25s-1.25-0.56-1.25-1.25v-3.437h-3.437c-0.69 0-1.25-0.56-1.25-1.25s0.56-1.25 1.25-1.25h3.437v-3.437c0-0.69 0.56-1.25 1.25-1.25s1.25 0.56 1.25 1.25v3.437h3.437c0.691 0 1.25 0.56 1.25 1.25z"></path>
</symbol>
<symbol id="icon-analytics" viewBox="0 0 32 32">
<title>analytics</title>
<path fill="#ff6b08" style="fill: var(--color2, #ff6b08)" d="M16 0.615c7.477 0 13.538 6.061 13.538 13.538s-6.061 13.538-13.538 13.538c-7.477 0-13.538-6.061-13.538-13.538s6.061-13.538 13.538-13.538z"></path>
<path fill="#fff" style="fill: var(--color1, #fff)" d="M22.487 20.359h-12.974c-0.156 0-0.282 0.126-0.282 0.282s0.126 0.282 0.282 0.282h12.974c0.156 0 0.282-0.126 0.282-0.282s-0.126-0.282-0.282-0.282z"></path>
<path fill="#fff" style="fill: var(--color1, #fff)" d="M11.769 16.974h-1.692c-0.156 0-0.282 0.126-0.282 0.282v3.385c0 0.156 0.126 0.282 0.282 0.282h1.692c0.156 0 0.282-0.126 0.282-0.282v-3.385c0-0.156-0.126-0.282-0.282-0.282zM11.487 20.359h-1.128v-2.821h1.128v2.821z"></path>
<path fill="#fff" style="fill: var(--color1, #fff)" d="M15.154 14.154h-1.692c-0.156 0-0.282 0.126-0.282 0.282v6.205c0 0.156 0.126 0.282 0.282 0.282h1.692c0.156 0 0.282-0.126 0.282-0.282v-6.205c0-0.156-0.126-0.282-0.282-0.282zM14.872 20.359h-1.128v-5.641h1.128v5.641z"></path>
<path fill="#fff" style="fill: var(--color1, #fff)" d="M18.538 15.282h-1.692c-0.156 0-0.282 0.126-0.282 0.282v5.077c0 0.156 0.126 0.282 0.282 0.282h1.692c0.156 0 0.282-0.126 0.282-0.282v-5.077c0-0.156-0.126-0.282-0.282-0.282zM18.256 20.359h-1.128v-4.513h1.128v4.513z"></path>
<path fill="#fff" style="fill: var(--color1, #fff)" d="M21.923 11.897h-1.692c-0.156 0-0.282 0.126-0.282 0.282v8.462c0 0.156 0.126 0.282 0.282 0.282h1.692c0.156 0 0.282-0.126 0.282-0.282v-8.462c0-0.156-0.126-0.282-0.282-0.282zM21.641 20.359h-1.128v-7.897h1.128v7.897z"></path>
<path fill="#fff" style="fill: var(--color1, #fff)" d="M10.923 12.462c-0.622 0-1.128 0.506-1.128 1.128s0.506 1.128 1.128 1.128c0.622 0 1.128-0.506 1.128-1.128s-0.506-1.128-1.128-1.128zM10.923 14.154c-0.311 0-0.564-0.253-0.564-0.564s0.253-0.564 0.564-0.564 0.564 0.253 0.564 0.564c0 0.311-0.253 0.564-0.564 0.564z"></path>
<path fill="#fff" style="fill: var(--color1, #fff)" d="M14.308 9.641c-0.622 0-1.128 0.506-1.128 1.128s0.506 1.128 1.128 1.128c0.622 0 1.128-0.506 1.128-1.128s-0.506-1.128-1.128-1.128zM14.308 11.333c-0.311 0-0.564-0.253-0.564-0.564s0.253-0.564 0.564-0.564 0.564 0.253 0.564 0.564c0 0.311-0.253 0.564-0.564 0.564z"></path>
<path fill="#fff" style="fill: var(--color1, #fff)" d="M17.692 10.769c-0.622 0-1.128 0.506-1.128 1.128s0.506 1.128 1.128 1.128c0.622 0 1.128-0.506 1.128-1.128s-0.506-1.128-1.128-1.128zM17.692 12.462c-0.311 0-0.564-0.253-0.564-0.564s0.253-0.564 0.564-0.564 0.564 0.253 0.564 0.564c0 0.311-0.253 0.564-0.564 0.564z"></path>
<path fill="#fff" style="fill: var(--color1, #fff)" d="M21.077 7.385c-0.622 0-1.128 0.506-1.128 1.128s0.506 1.128 1.128 1.128c0.622 0 1.128-0.506 1.128-1.128s-0.506-1.128-1.128-1.128zM21.077 9.077c-0.311 0-0.564-0.253-0.564-0.564s0.253-0.564 0.564-0.564 0.564 0.253 0.564 0.564c0 0.311-0.253 0.564-0.564 0.564z"></path>
<path fill="#fff" style="fill: var(--color1, #fff)" d="M20.679 8.911c-0.11-0.11-0.289-0.11-0.399 0l-2.189 2.189c-0.11 0.11-0.11 0.289 0 0.399 0.055 0.055 0.128 0.082 0.2 0.082s0.144-0.027 0.199-0.082l2.189-2.189c0.11-0.11 0.11-0.289 0-0.399z"></path>
<path fill="#fff" style="fill: var(--color1, #fff)" d="M17.010 11.246l-1.812-0.517c-0.152-0.044-0.306 0.044-0.348 0.194s0.044 0.306 0.193 0.349l1.812 0.517c0.026 0.007 0.052 0.011 0.077 0.011 0.123 0 0.236-0.081 0.271-0.205 0.043-0.15-0.044-0.306-0.194-0.349z"></path>
<path fill="#fff" style="fill: var(--color1, #fff)" d="M13.868 11.121c-0.097-0.122-0.274-0.142-0.396-0.045l-2.127 1.696c-0.122 0.098-0.142 0.275-0.045 0.397 0.056 0.070 0.138 0.106 0.221 0.106 0.061 0 0.124-0.020 0.175-0.061l2.127-1.696c0.122-0.098 0.142-0.275 0.045-0.397z"></path>
</symbol>
<symbol id="icon-arrow" viewBox="0 0 124 32">
<title>arrow</title>
<path d="M2.586 14.586c-0.781 0.781-0.781 2.047 0 2.828l12.728 12.728c0.781 0.781 2.047 0.781 2.828 0s0.781-2.047 0-2.828l-11.314-11.314 11.314-11.314c0.781-0.781 0.781-2.047 0-2.828s-2.047-0.781-2.828 0l-12.728 12.728zM124 14h-120v4h120v-4z"></path>
</symbol>
<symbol id="icon-circle" viewBox="0 0 32 32">
<title>circle</title>
<path fill="none" stroke="#d1d2d4" style="stroke: var(--color3, #d1d2d4)" stroke-linejoin="miter" stroke-linecap="butt" stroke-miterlimit="4" stroke-width="0.9412" d="M31.529 16c0 8.577-6.953 15.529-15.529 15.529s-15.529-6.953-15.529-15.529c0-8.577 6.953-15.529 15.529-15.529s15.529 6.953 15.529 15.529z"></path>
<path fill="#ff6b08" style="fill: var(--color2, #ff6b08)" d="M23.529 16c0 4.158-3.371 7.529-7.529 7.529s-7.529-3.371-7.529-7.529c0-4.158 3.371-7.529 7.529-7.529s7.529 3.371 7.529 7.529z"></path>
</symbol>
<symbol id="icon-close" viewBox="0 0 32 32">
<title>close</title>
<path d="M23.507 24.675l-7.511-7.511-7.317 7.317-1.207-1.207 7.317-7.317-7.473-7.473 1.129-1.129 7.472 7.472 7.356-7.356 1.207 1.207-7.356 7.356 7.511 7.511-1.129 1.129z"></path>
</symbol>
<symbol id="icon-create-btn" viewBox="0 0 32 32">
<title>create-btn</title>
<path fill="#ff6b08" style="fill: var(--color2, #ff6b08)" d="M16 0.615c7.477 0 13.538 6.061 13.538 13.538s-6.061 13.538-13.538 13.538c-7.477 0-13.538-6.061-13.538-13.538s6.061-13.538 13.538-13.538z"></path>
<path fill="#fff" style="fill: var(--color1, #fff)" d="M21.498 14.52h-5.107v4.975h-0.82v-4.975h-5.081v-0.767h5.081v-5.001h0.82v5.001h5.107v0.767z"></path>
</symbol>
<symbol id="icon-delete-grey" viewBox="0 0 32 32">
<title>delete-grey</title>
<path fill="#a6a6a6" style="fill: var(--color4, #a6a6a6)" d="M16 0c-8.837 0-16 7.163-16 16s7.163 16 16 16c8.836 0 16-7.164 16-16s-7.164-16-16-16zM17.61 7.559h-3.209v0.54h-1.159v-0.616c0-0.597 0.486-1.083 1.083-1.083h3.361c0.597 0 1.083 0.486 1.083 1.083v0.616h-1.159v-0.54zM21.445 12.691c0.298 0 0.533 0.254 0.508 0.552l-0.909 11.246c-0.051 0.628-0.574 1.112-1.204 1.112h-7.67c-0.629 0-1.153-0.484-1.204-1.111l-0.91-11.246c-0.024-0.297 0.211-0.552 0.509-0.552h10.879zM13.2 24.4c0.319-0.020 0.562-0.295 0.543-0.614l-0.57-9.233c-0.020-0.32-0.296-0.562-0.614-0.543-0.319 0.020-0.562 0.295-0.543 0.614l0.57 9.233c0.019 0.307 0.274 0.544 0.578 0.544 0.012 0 0.024-0 0.036-0.001zM16.592 23.822v-9.233c0-0.32-0.26-0.579-0.58-0.579s-0.58 0.259-0.58 0.579v9.233c0 0.32 0.259 0.579 0.58 0.579s0.58-0.259 0.58-0.579zM19.995 14.623c0.019-0.319-0.225-0.594-0.544-0.613s-0.594 0.225-0.612 0.544l-0.544 9.233c-0.019 0.32 0.225 0.594 0.544 0.613l0.011 0 0.024 0c0.304 0 0.56-0.237 0.578-0.545l0.544-9.233zM23.069 9.762l0.381 1.141c0.073 0.22-0.022 0.444-0.2 0.556-0.072 0.046-0.159 0.073-0.253 0.073h-13.98c-0.094 0-0.18-0.027-0.253-0.073-0.178-0.112-0.274-0.336-0.2-0.556l0.381-1.141c0.1-0.301 0.382-0.504 0.699-0.504h12.728c0.317 0 0.599 0.203 0.699 0.504z"></path>
</symbol>
<symbol id="icon-little-arrow-left" viewBox="0 0 23 32">
<title>little-arrow-left</title>
<path stroke-linejoin="miter" stroke-linecap="butt" stroke-miterlimit="4" stroke-width="2.2857" d="M20.571 29.714l-18.286-13.714 18.286-13.714"></path>
</symbol>
<symbol id="icon-little-arrow-right" viewBox="0 0 23 32">
<title>little-arrow-right</title>
<path stroke-linejoin="miter" stroke-linecap="butt" stroke-miterlimit="4" stroke-width="2.2857" d="M2.286 29.714l18.286-13.714-18.286-13.714"></path>
</symbol>
<symbol id="icon-logo" viewBox="0 0 107 32">
<title>logo</title>
<path fill="#181c27" style="fill: var(--color5, #181c27)" d="M36.213 12.011c-2.172 0-3.811 1.712-3.811 3.985s1.656 3.985 3.85 3.985c2.172 0 3.81-1.712 3.81-3.985s-1.655-3.985-3.849-3.985zM47.223 0.162h-47.223v31.838h47.223l11.152-15.885-11.152-15.953zM24.692 21.036l-0.109 0.092c-1.763 1.486-3.804 2.239-6.066 2.239-2.139 0-4.068-0.743-5.433-2.092-1.352-1.338-2.097-3.213-2.097-5.28 0-1.986 0.757-3.834 2.134-5.204 1.397-1.398 3.304-2.167 5.38-2.167 2.34 0 3.959 0.564 5.596 1.947l0.233 0.197-2.301 2.754-0.239-0.198c-1.004-0.832-1.881-1.314-3.392-1.314-2.004 0-3.634 1.788-3.634 3.985 0 2.332 1.619 4.024 3.849 4.024 0.982 0 1.854-0.232 2.535-0.674v-1.481h-3.040v-3.213h6.584v6.384zM41.678 21.203c-1.417 1.396-3.358 2.165-5.466 2.165s-4.045-0.763-5.447-2.151c-1.381-1.366-2.142-3.218-2.142-5.221-0.006-0.967 0.182-1.926 0.553-2.82s0.918-1.706 1.609-2.387c1.417-1.396 3.358-2.162 5.466-2.162s4.044 0.764 5.446 2.151c1.381 1.366 2.142 3.218 2.142 5.221 0.006 0.967-0.182 1.925-0.553 2.818s-0.918 1.704-1.608 2.385z"></path>
<path fill="#fff" style="fill: var(--color1, #fff); stroke: var(--color1, #fff)" stroke="#fff" stroke-linejoin="miter" stroke-linecap="butt" stroke-miterlimit="10" stroke-width="0.7619" d="M11.278 16.022c0-3.815 2.988-6.94 7.074-6.94 2.429 0 3.893 0.652 5.3 1.84l-1.87 2.243c-1.041-0.863-1.966-1.361-3.527-1.361-2.159 0-3.874 1.898-3.874 4.218 0 2.454 1.696 4.256 4.086 4.256 1.079 0 2.043-0.268 2.795-0.805v-1.917h-2.988v-2.552h5.859v5.828c-1.388 1.169-3.296 2.128-5.763 2.128-4.202 0-7.093-2.933-7.093-6.937z"></path>
<path fill="#fff" style="fill: var(--color1, #fff); stroke: var(--color1, #fff)" stroke="#fff" stroke-linejoin="miter" stroke-linecap="butt" stroke-miterlimit="10" stroke-width="0.7619" d="M29.176 16.115c0-3.815 3.029-6.94 7.189-6.94s7.151 3.087 7.151 6.94c0 3.815-3.029 6.94-7.189 6.94s-7.151-3.087-7.151-6.94zM40.413 16.115c0-2.301-1.696-4.218-4.086-4.218s-4.048 1.879-4.048 4.218c0 2.3 1.696 4.218 4.086 4.218s4.048-1.879 4.048-4.218z"></path>
<path fill="#ff6c00" style="fill: var(--color6, #ff6c00)" d="M106.667 0h-47.164v31.838h47.164v-31.838z"></path>
<path fill="#fff" style="fill: var(--color1, #fff); stroke: var(--color1, #fff)" stroke="#fff" stroke-linejoin="miter" stroke-linecap="butt" stroke-miterlimit="10" stroke-width="0.7619" d="M74.033 9.542h2.968v13.42h-2.968v-13.42z"></path>
<path fill="#fff" style="fill: var(--color1, #fff); stroke: var(--color1, #fff)" stroke="#fff" stroke-linejoin="miter" stroke-linecap="butt" stroke-miterlimit="10" stroke-width="0.7619" d="M85.783 12.265h-4.106v-2.722h11.179v2.722h-4.105v10.697h-2.968v-10.697z"></path>
</symbol>
<symbol id="icon-logout" viewBox="0 0 32 32">
<title>logout</title>
<path stroke-linejoin="miter" stroke-linecap="butt" stroke-miterlimit="4" stroke-width="0.5333" d="M26.769 11.242v-0c0.384-0.384 1.007-0.384 1.391 0l2.799 2.799c1.115 1.114 1.115 2.928 0 4.042l-2.799 2.799c-0.192 0.192-0.443 0.288-0.695 0.288s-0.503-0.096-0.695-0.288v0c-0.384-0.384-0.384-1.006 0-1.39v0l2.446-2.446h-15.653c-0.543 0-0.983-0.44-0.983-0.983s0.44-0.983 0.983-0.983h15.653l-2.446-2.447c-0.384-0.384-0.384-1.006 0-1.39zM22.358 24.5v2.5c0 2.61-2.124 4.733-4.733 4.733h-12.563c-2.61 0-4.733-2.124-4.733-4.733v-22c0-2.61 2.124-4.733 4.733-4.733h12.563c2.61 0 4.733 2.124 4.733 4.733v2.5c0 0.543-0.44 0.983-0.983 0.983s-0.983-0.44-0.983-0.983v-2.5c0-1.526-1.241-2.767-2.767-2.767h-12.563c-1.526 0-2.767 1.241-2.767 2.767v22c0 1.526 1.241 2.767 2.767 2.767h12.563c1.526 0 2.767-1.241 2.767-2.767v-2.5c0-0.543 0.44-0.983 0.983-0.983s0.983 0.44 0.983 0.983z"></path>
</symbol>
<symbol id="icon-logout-mobile" viewBox="0 0 32 32">
<title>logout-mobile</title>
<path fill="#a6a6a6" style="fill: var(--color4, #a6a6a6)" d="M32 16c0 8.837-7.163 16-16 16s-16-7.163-16-16c0-8.837 7.163-16 16-16s16 7.163 16 16z"></path>
<path fill="#f1f2f7" style="fill: var(--color7, #f1f2f7)" d="M24.595 13.145v0c0.23-0.23 0.604-0.23 0.834 0l1.679 1.679c0.669 0.669 0.669 1.757 0 2.425l-1.679 1.679c-0.115 0.115-0.266 0.173-0.417 0.173s-0.302-0.058-0.417-0.173v0c-0.23-0.23-0.23-0.604 0-0.834v0l1.468-1.468h-9.392c-0.326 0-0.59-0.264-0.59-0.59s0.264-0.59 0.59-0.59h9.392l-1.468-1.468c-0.23-0.23-0.23-0.604 0-0.834zM21.948 21.1v1.5c0 1.566-1.274 2.84-2.84 2.84h-7.537c-1.566 0-2.84-1.274-2.84-2.84v-13.2c0-1.566 1.274-2.84 2.84-2.84h7.537c1.566 0 2.84 1.274 2.84 2.84v1.5c0 0.326-0.264 0.59-0.59 0.59s-0.59-0.264-0.59-0.59v-1.5c0-0.915-0.745-1.66-1.66-1.66h-7.537c-0.915 0-1.66 0.745-1.66 1.66v13.2c0 0.915 0.745 1.66 1.66 1.66h7.537c0.915 0 1.66-0.745 1.66-1.66v-1.5c0-0.326 0.264-0.59 0.59-0.59s0.59 0.264 0.59 0.59z"></path>
</symbol>
<symbol id="icon-project" viewBox="0 0 32 32">
<title>project</title>
<path fill="#a6a6a6" style="fill: var(--color4, #a6a6a6)" d="M15.999 0c-8.836 0-15.999 7.164-15.999 16s7.163 16 15.999 16c8.836 0 16-7.164 16-16s-7.164-16-16-16zM23.605 11.514l-1.52 1.52-3.093-3.093-1.174 1.174 3.093 3.093-7.587 7.587-3.093-3.093-1.174 1.174 3.093 3.093-0.756 0.756-0.014-0.014c-0.084 0.138-0.22 0.239-0.382 0.275l-2.885 0.643c-0.043 0.010-0.087 0.014-0.131 0.014-0.157 0-0.31-0.062-0.424-0.176-0.146-0.145-0.206-0.354-0.161-0.555l0.643-2.884c0.036-0.162 0.137-0.298 0.275-0.382l-0.015-0.015 12.21-12.211c0.179-0.179 0.47-0.179 0.649 0.001l2.445 2.444c0.179 0.179 0.179 0.47-0 0.649z"></path>
</symbol>
<symbol id="icon-search" viewBox="0 0 32 32">
<title>search</title>
<path fill="#a6a6a6" style="fill: var(--color4, #a6a6a6)" d="M31.609 29.724l-9.1-9.1c1.763-2.177 2.824-4.944 2.824-7.957 0-6.984-5.683-12.667-12.667-12.667s-12.666 5.683-12.666 12.666c0 6.984 5.683 12.667 12.667 12.667 3.013 0 5.78-1.061 7.957-2.824l9.1 9.1c0.26 0.26 0.601 0.391 0.943 0.391s0.683-0.131 0.943-0.391c0.521-0.521 0.521-1.364-0-1.885zM12.667 22.667c-5.515 0-10-4.485-10-10s4.485-10 10-10c5.515 0 10 4.485 10 10s-4.485 10-10 10z"></path>
</symbol>
<symbol id="icon-triangle" viewBox="0 0 48 32">
<title>triangle</title>
<path d="M24 0l20.785 30h-41.569l20.785-30z"></path>
</symbol>
<symbol id="icon-triangle-down" viewBox="0 0 48 32">
<title>triangle-down</title>
<path d="M24 32l-20.785-30h41.569l-20.785 30z"></path>
</symbol>
</defs>
</svg>
